<?xml version="1.0" encoding="UTF-8" standalone="no"?>
<!-- Created with Inkscape (http://www.inkscape.org/) -->

<svg
   version="1.1"
   id="svg2"
   width="196.2"
   height="166.74667"
   viewBox="0 0 196.2 166.74667"
   sodipodi:docname="SnT_colour_logo 11.51.05.eps"
   xmlns:inkscape="http://www.inkscape.org/namespaces/inkscape"
   xmlns:sodipodi="http://sodipodi.sourceforge.net/DTD/sodipodi-0.dtd"
   xmlns="http://www.w3.org/2000/svg"
   xmlns:svg="http://www.w3.org/2000/svg">
  <defs
     id="defs6" />
  <sodipodi:namedview
     id="namedview4"
     pagecolor="#ffffff"
     bordercolor="#000000"
     borderopacity="0.25"
     inkscape:showpageshadow="2"
     inkscape:pageopacity="0.0"
     inkscape:pagecheckerboard="0"
     inkscape:deskcolor="#d1d1d1" />
  <g
     id="g8"
     inkscape:groupmode="layer"
     inkscape:label="ink_ext_XXXXXX"
     transform="matrix(1.3333333,0,0,-1.3333333,0,166.74667)">
    <g
       id="g10"
       transform="scale(0.1)">
      <path
         d="M 1.10547,0 V 95.4102 H 577.887 V 0 H 1.10547 v 0"
         style="fill:#ee2722;fill-opacity:1;fill-rule:nonzero;stroke:none"
         id="path12" />
      <path
         d="M 935.637,0 V 95.4102 H 1470.42 V 0 H 935.637 v 0"
         style="fill:#2e9dde;fill-opacity:1;fill-rule:nonzero;stroke:none"
         id="path14" />
      <path
         d="m 577.887,0 v 95.4102 h 357.75 V 0 h -357.75 v 0"
         style="fill:#50258a;fill-opacity:1;fill-rule:nonzero;stroke:none"
         id="path16" />
      <path
         d="m 935.637,1116.82 c 0,99.91 -55.332,133.66 -118.77,133.66 -25.683,0 -48.605,-5.41 -68.875,-17.54 -20.219,-10.83 -36.457,-27.01 -48.629,-47.26 0,0 -0.113,2.45 -0.113,3.71 0,33.51 -27.168,60.7 -60.707,60.7 -33.484,0 -60.656,-27.19 -60.656,-60.7 0,-2.25 0,-858.245 0,-858.245 v 0 -0.008 c 0,-35.071 28.441,-63.52 63.496,-63.52 35.055,0 63.512,28.449 63.512,63.52 0,0.308 -0.098,0.586 -0.098,0.894 v 749.699 c 0,52.65 24.293,71.54 55.32,71.54 39.18,0 48.633,-25.66 48.633,-60.75 V 329.426 h 0.168 c 0.711,-34.207 28.574,-61.809 63.008,-61.809 34.363,0 62.265,27.602 62.949,61.809 h 0.762 v 787.394"
         style="fill:#4f4c4c;fill-opacity:1;fill-rule:nonzero;stroke:none"
         id="path18" />
      <path
         d="M 1414.86,1250.48 H 1100.5 v 0 c -31.26,0 -56.67,-25.39 -56.67,-56.7 0,-31.3 25.41,-56.68 56.67,-56.7 v 0 h 91.44 V 335.59 h 0.08 c 0,-0.156 -0.08,-0.293 -0.08,-0.442 0,-37.304 30.22,-67.531 67.51,-67.531 37.27,0 67.51,30.227 67.51,67.531 0,0.149 -0.07,0.286 -0.07,0.442 h 0.07 v 801.49 h 87.9 c 31.28,0 56.66,25.38 56.66,56.7 0,31.31 -25.38,56.7 -56.66,56.7"
         style="fill:#4f4c4c;fill-opacity:1;fill-rule:nonzero;stroke:none"
         id="path20" />
      <path
         d="M 272.73,805.984 C 148.523,934.555 135.027,974.719 135.027,1040.34 c 0,75 25.653,105.8 81.008,105.8 52.625,0 75.602,-32.18 75.602,-87.07 v -76.312 c 0,-34.77 28.39,-62.965 63.429,-62.965 35.079,0 63.465,28.195 63.465,62.965 v 91.042 c 0,68.31 -16.203,101.79 -39.148,123.2 -32.395,29.47 -85.07,53.58 -157.949,53.58 C 74.2773,1250.58 0,1182.29 0,1024.25 0,893.02 71.5742,815.363 157.977,729.648 298.387,591.711 302.43,564.934 302.43,483.227 c 0,-62.93 -17.571,-111.145 -89.129,-111.145 -53.985,0 -78.274,40.176 -78.274,104.453 v 79.024 c 0,36.98 -30.23,66.933 -67.5114,66.933 C 30.2461,622.492 0,592.539 0,555.559 V 440.402 C 0,319.855 85.0703,267.617 209.273,267.617 c 160.657,0 220.063,87.082 220.063,238.379 0,116.496 -24.301,163.395 -156.606,299.988"
         style="fill:#4f4c4c;fill-opacity:1;fill-rule:nonzero;stroke:none"
         id="path22" />
    </g>
  </g>
</svg>
