<?xml version="1.0" encoding="utf-8"?>
<!-- Generator: Adobe Illustrator 25.2.3, SVG Export Plug-In . SVG Version: 6.00 Build 0)  -->
<svg version="1.1" id="Layer_1" xmlns="http://www.w3.org/2000/svg" xmlns:xlink="http://www.w3.org/1999/xlink" x="0px" y="0px"
	 viewBox="0 0 876.3 594.3" style="enable-background:new 0 0 876.3 594.3;" xml:space="preserve">
<style type="text/css">
	.st0{fill:url(#SVGID_1_);}
	.st1{fill:#084564;}
</style>
<g>
	
		<linearGradient id="SVGID_1_" gradientUnits="userSpaceOnUse" x1="304.3207" y1="175.6359" x2="570.156" y2="591.0448" gradientTransform="matrix(1 0 0 -1 0 594.1102)">
		<stop  offset="0" style="stop-color:#2AD563"/>
		<stop  offset="1" style="stop-color:#00FF55"/>
	</linearGradient>
	<path class="st0" d="M493,250.8l-39.2,68.1h175c17.2,0,27.9-18.6,19.2-33.4L540.6,99.3l-19.9-34.2c-8.5-14.8-29.9-14.8-38.6,0
		l-19.7,34.2l-87.3,151.3l-47.9-83.2h56.4l39.2-68.1h-175c-17.2,0-27.9,18.6-19.2,33.4l107.3,186l-0.2,0.2h0.2v-0.2v0.2l19.7,34.2
		c8.5,14.8,29.9,14.8,38.6,0l19.7-34.2l87.3-151.3l48.1,83.2H493z"/>
	<path class="st1" d="M142.1,481.9c0,32.9-22.4,54.5-56.6,54.5H38.7v47.4H12.6V427.3h73C119.8,427.3,142.1,449.1,142.1,481.9z
		 M116.1,481.9c0-18.6-12.8-30.6-32-30.6H38.6v61.5h45.6C103.4,512.8,116.1,500.6,116.1,481.9z"/>
	<path class="st1" d="M216.5,427.3h26.2v156.5h-26.2V427.3z"/>
	<path class="st1" d="M457.2,583.8h-31.5l-23.3-33.7l-17.7-26.6l-18,26.6l-23.3,33.7h-31.1l55.2-79.6l-53-76.9h30.9l21.4,31.5
		l17.8,27.1l18.1-27.1l21.4-31.5h30.6l-53.3,76.9L457.2,583.8z"/>
	<path class="st1" d="M646.7,553.3h-18.3v30.6h-26.2v-30.6h-86.4l-3.2-24.1l85.6-101.8h29.9v101.8h18.3v24.1H646.7z M542,529.3h60.2
		v-70.9L542,529.3z"/>
	<path class="st1" d="M863.7,505.7c0,47-31.7,78.3-79,78.3h-59.9V427.5h59.9C832,427.3,863.7,458.7,863.7,505.7z M837.4,505.7
		c0-32.2-21.4-54.1-52.5-54.1h-33.7v108.3h33.6C816.1,559.7,837.4,537.8,837.4,505.7z"/>
</g>
</svg>
