<?xml version="1.0" encoding="UTF-8" standalone="no"?>
<!-- Created with Inkscape (http://www.inkscape.org/) -->

<svg
   version="1.1"
   id="svg2"
   width="793.70667"
   height="255.56"
   viewBox="0 0 793.70667 255.56"
   sodipodi:docname="SnT_UL_logo2020 11.51.05.eps"
   xmlns:inkscape="http://www.inkscape.org/namespaces/inkscape"
   xmlns:sodipodi="http://sodipodi.sourceforge.net/DTD/sodipodi-0.dtd"
   xmlns="http://www.w3.org/2000/svg"
   xmlns:svg="http://www.w3.org/2000/svg">
  <defs
     id="defs6" />
  <sodipodi:namedview
     id="namedview4"
     pagecolor="#ffffff"
     bordercolor="#000000"
     borderopacity="0.25"
     inkscape:showpageshadow="2"
     inkscape:pageopacity="0.0"
     inkscape:pagecheckerboard="0"
     inkscape:deskcolor="#d1d1d1" />
  <g
     id="g8"
     inkscape:groupmode="layer"
     inkscape:label="ink_ext_XXXXXX"
     transform="matrix(1.3333333,0,0,-1.3333333,0,255.56)">
    <g
       id="g10"
       transform="scale(0.1)">
      <path
         d="m 2286.47,1316.45 c -28.37,0 -53.12,16.11 -65.44,40.74 h -8.34 V 534.961 c 0,-40.461 32.81,-73.43 73.65,-73.43 40.54,0 73.42,32.969 73.42,73.43 v 822.229 h -8.27 c -12.24,-24.63 -36.71,-40.74 -65.02,-40.74"
         style="fill:#2d9edf;fill-opacity:1;fill-rule:nonzero;stroke:none"
         id="path12" />
      <path
         d="m 1757.78,1134.8 c -28.32,0 -52.77,15.88 -65.04,40.63 h -8.36 V 534.961 c 0,-40.461 32.88,-73.43 73.4,-73.43 40.43,0 73.34,32.969 73.34,73.43 v 640.469 h -8.24 c -12.28,-24.75 -36.85,-40.63 -65.1,-40.63"
         style="fill:#ee2722;fill-opacity:1;fill-rule:nonzero;stroke:none"
         id="path14" />
      <path
         d="m 1684.25,1282.44 c 0,40.69 33.01,73.56 73.63,73.56 40.68,0 73.59,-32.87 73.59,-73.56 0,-40.6 -32.91,-73.53 -73.59,-73.53 -40.62,0 -73.63,32.93 -73.63,73.53"
         style="fill:#ee2722;fill-opacity:1;fill-rule:nonzero;stroke:none"
         id="path16" />
      <path
         d="m 888.406,461.531 v 0 c -40.41,0 -73.316,32.809 -73.316,73.43 v 567.169 c 0,40.43 32.906,73.3 73.316,73.3 40.664,0 73.559,-32.87 73.559,-73.3 V 461.531 h -73.559"
         style="fill:#ee2722;fill-opacity:1;fill-rule:nonzero;stroke:none"
         id="path18" />
      <path
         d="m 1001.57,461.531 v 0 640.599 c 0,40.43 32.89,73.3 73.36,73.3 40.63,0 73.42,-32.87 73.42,-73.3 V 461.531 h 0.18 c -34.81,0 -42.82,40.231 -42.82,79.52 h 0.1 c 0,-40.422 -32.81,-79.52 -73.44,-79.52 h -30.68"
         style="fill:#ee2722;fill-opacity:1;fill-rule:nonzero;stroke:none"
         id="path20" />
      <path
         d="m 1510.09,1175.47 v 0 c 40.35,0 73.36,-32.91 73.36,-73.48 V 534.84 c 0,-40.461 -33.01,-73.309 -73.36,-73.309 -40.63,0 -73.52,32.848 -73.52,73.309 v 640.63 h 73.52"
         style="fill:#ee2722;fill-opacity:1;fill-rule:nonzero;stroke:none"
         id="path22" />
      <path
         d="m 1396.81,1175.47 h 0.13 V 534.84 c 0,-40.461 -32.81,-73.309 -73.38,-73.309 -40.5,0 -73.49,32.848 -73.49,73.309 v 640.63 h -0.06 c 34.69,-0.04 42.77,-40.35 42.77,-79.73 h -0.15 c 0,40.55 32.97,79.73 73.53,79.73 h 30.65"
         style="fill:#ee2722;fill-opacity:1;fill-rule:nonzero;stroke:none"
         id="path24" />
      <path
         d="m 2534.6,461.531 v 0 c -40.53,0 -73.42,32.848 -73.42,73.43 v 567.169 c 0,40.43 32.89,73.34 73.42,73.34 40.53,0 73.46,-32.91 73.46,-73.34 V 461.531 h -73.46"
         style="fill:#2d9edf;fill-opacity:1;fill-rule:nonzero;stroke:none"
         id="path26" />
      <path
         d="m 2647.9,461.531 h -0.16 v 640.599 c 0,40.43 32.8,73.34 73.44,73.34 40.47,0 73.38,-32.91 73.38,-73.34 V 461.531 h 0.1 c -34.65,0 -42.78,40.348 -42.78,79.66 h 0.08 c 0,-40.511 -32.89,-79.66 -73.45,-79.66 h -30.61"
         style="fill:#2d9edf;fill-opacity:1;fill-rule:nonzero;stroke:none"
         id="path28" />
      <path
         d="m 1948.88,535 c 0,40.781 32.91,73.691 73.63,73.691 40.62,0 73.61,-32.91 73.61,-73.691 0,-40.5 -32.99,-73.469 -73.61,-73.469 -40.72,0 -73.63,32.969 -73.63,73.469"
         style="fill:#2d9edf;fill-opacity:1;fill-rule:nonzero;stroke:none"
         id="path30" />
      <path
         d="m 3319.7,291.641 h 33.83 V 1525.72 H 3319.7 V 291.641"
         style="fill:#565353;fill-opacity:1;fill-rule:nonzero;stroke:none"
         id="path32" />
      <path
         d="m 3877.28,460.172 v 68.437 h 413.75 v -68.437 h -413.75 v 0"
         style="fill:#ee2722;fill-opacity:1;fill-rule:nonzero;stroke:none"
         id="path34" />
      <path
         d="m 4547.65,460.172 v 68.437 h 383.62 v -68.437 h -383.62 v 0"
         style="fill:#2d9edf;fill-opacity:1;fill-rule:nonzero;stroke:none"
         id="path36" />
      <path
         d="m 4291.03,460.172 v 68.437 h 256.62 v -68.437 h -256.62 v 0"
         style="fill:#4d2587;fill-opacity:1;fill-rule:nonzero;stroke:none"
         id="path38" />
      <path
         d="m 4547.65,1261.32 c 0,71.66 -39.69,95.87 -85.19,95.87 -18.44,0 -34.87,-3.87 -49.4,-12.58 -14.52,-7.77 -26.17,-19.37 -34.91,-33.91 0,0 -0.07,1.77 -0.07,2.67 0,24.04 -19.5,43.54 -43.55,43.54 -24.01,0 -43.5,-19.5 -43.5,-43.54 0,-1.62 0,-615.659 0,-615.659 v 0 0 c 0,-25.16 20.4,-45.57 45.54,-45.57 25.15,0 45.56,20.41 45.56,45.57 0,0.219 -0.07,0.418 -0.07,0.641 v 537.788 c 0,37.77 17.43,51.32 39.69,51.32 28.1,0 34.88,-18.4 34.88,-43.57 V 696.48 h 0.13 c 0.51,-24.539 20.49,-44.339 45.18,-44.339 24.66,0 44.68,19.8 45.16,44.339 h 0.55 v 564.84"
         style="fill:#565353;fill-opacity:1;fill-rule:nonzero;stroke:none"
         id="path40" />
      <path
         d="m 4891.43,1357.19 h -225.51 v 0 c -22.42,0 -40.66,-18.22 -40.66,-40.67 0,-22.45 18.24,-40.66 40.66,-40.68 v 0 h 65.58 V 700.898 h 0.06 c 0,-0.109 -0.06,-0.199 -0.06,-0.308 0,-26.77 21.69,-48.449 48.44,-48.449 26.74,0 48.42,21.679 48.42,48.449 0,0.109 -0.05,0.199 -0.05,0.308 h 0.05 v 574.942 h 63.07 c 22.44,0 40.63,18.22 40.63,40.68 0,22.45 -18.19,40.67 -40.63,40.67"
         style="fill:#565353;fill-opacity:1;fill-rule:nonzero;stroke:none"
         id="path42" />
      <path
         d="m 4071.78,1038.3 c -88.37,92.21 -97.97,121.04 -97.97,168.1 0,53.78 18.24,75.89 57.64,75.89 37.44,0 53.77,-23.09 53.77,-62.46 v -54.74 c 0,-24.93 20.2,-45.15 45.14,-45.15 24.96,0 45.16,20.22 45.16,45.15 v 65.3 c 0,49 -11.54,73.02 -27.86,88.37 -23.06,21.14 -60.51,38.43 -112.37,38.43 -104.7,0 -157.56,-48.98 -157.56,-162.34 0,-94.13 50.93,-149.82 112.41,-211.303 99.9,-98.945 102.77,-118.149 102.77,-176.758 0,-45.129 -12.5,-79.699 -63.41,-79.699 -38.41,0 -55.69,28.801 -55.69,74.898 v 56.684 c 0,26.527 -21.51,48.019 -48.05,48.019 -26.5,0 -48.03,-21.492 -48.03,-48.019 V 776.07 c 0,-86.461 60.53,-123.929 148.89,-123.929 114.32,0 156.57,62.461 156.57,170.988 0,83.562 -17.28,117.191 -111.41,215.171"
         style="fill:#565353;fill-opacity:1;fill-rule:nonzero;stroke:none"
         id="path44" />
    </g>
  </g>
</svg>
